{"title":"The Illusionist 2006 720p BRRip H264 [ChattChitto RG]","uid":6202746,"size":2294388415,"categoryP":"video","categoryS":"hd___movies","magnet":"?xt=urn:btih:2dcb9acc081c55b15898bef14c5d1b060f4d96d3&amp;dn=The+Illusionist+2006+720p+BRRip+H264+%5BChattChitto+RG%5D&amp;tr=udp%3A%2F%2Ftracker.openbittorrent.com%3A80&amp;tr=udp%3A%2F%2Fopen.demonii.com%3A1337&amp;tr=udp%3A%2F%2Ftracker.coppersurfer.tk%3A6969&amp;tr=udp%3A%2F%2Fexodus.desync.com%3A6969","seeders":1,"leechers":2,"uploader":"ChattChitto","files":-1,"time":1298680203,"description":"General                          : ChattChitto RG - Movies [R2L]\n==========\nComplete name                    : The Illusionist 2006 720p BRRip H264 [ChattChitto RG]\nFormat                           : MPEG-4\nFormat profile                   : Base Media\nCodec ID                         : isom\nFile size                        : 2.02 GiB\nDuration                         : 1h 48mn\nOverall bit rate                 : 2 657 Kbps\nEncoded date                     : UTC 2011-02-23 17:16:16\n\nVideo\n==========\nID                               : 1\nFormat                           : AVC\nFormat/Info                      : Advanced Video Codec\nFormat profile                   : &lt;a class=&quot;__cf_email__&quot; href=&quot;/cdn-cgi/l/email-protection&quot; data-cfemail=&quot;4901202e2109057d6779&quot;&gt;[email&amp;#160;protected]&lt;/a&gt;&lt;script cf-hash='f9e31' type=&quot;text/javascript&quot;&gt;\n/* &lt;![CDATA[ */!function(){try{var t=&quot;currentScript&quot;in document?document.currentScript:function(){for(var t=document.getElementsByTagName(&quot;script&quot;),e=t.length;e--;)if(t[e].getAttribute(&quot;cf-hash&quot;))return t[e]}();if(t&amp;&amp;t.previousSibling){var e,r,n,i,c=t.previousSibling,a=c.getAttribute(&quot;data-cfemail&quot;);if(a){for(e=&quot;&quot;,r=parseInt(a.substr(0,2),16),n=2;a.length-n;n+=2)i=parseInt(a.substr(n,2),16)^r,e+=String.fromCharCode(i);e=document.createTextNode(e),c.parentNode.replaceChild(e,c)}}}catch(u){}}();/* ]]&gt; */&lt;/script&gt;\nFormat settings, CABAC           : Yes\nFormat settings, ReFrames        : 4 frames\nCodec ID                         : avc1\nCodec ID/Info                    : Advanced Video Coding\nDuration                         : 1h 48mn\nBit rate mode                    : Variable\nBit rate                         : 2 300 Kbps\nMaximum bit rate                 : 17.8 Mbps\nWidth                            : 1 280 pixels\nHeight                           : 688 pixels\nDisplay aspect ratio             : 1.860\nFrame rate mode                  : Constant\nFrame rate                       : 23.976 fps\nResolution                       : 24 bits\nColorimetry                      : 4:2:0\nScan type                        : Progressive\nBits/(Pixel*Frame)               : 0.109\nStream size                      : 1.75 GiB (87%)\nWriting library                  : x264 core 84 r1400M 20fa784\nEncoded date                     : UTC 2011-02-23 15:57:24\n\nAudio\n==========\nID                               : 2\nFormat                           : AAC\nFormat/Info                      : Advanced Audio Codec\nFormat version                   : Version 4\nFormat profile                   : LC\nFormat settings, SBR             : No\nCodec ID                         : 40\nDuration                         : 1h 48mn\nBit rate mode                    : Variable\nBit rate                         : 352.8 Kbps\nMaximum bit rate                 : 446 Kbps\nChannel(s)                       : 6 channels\nChannel positions                : Front: L C R, Rear: L R, LFE\nSampling rate                    : 48.0 KHz\nResolution                       : 16 bits\nStream size                      : 275 MiB (13%)\nEncoded date                     : UTC 2011-02-23 17:17:15\n\nSubtitles                        : English | Portuguese | Romanian | Spanish\n\n\n----------------------------------------------------\nIMDB Link: http://www.imdb.com/title/tt0443543/\n----------------------------------------------------\n\n\n\nScreen Shots:\n==============    &lt;a href=&quot;\nhttp://chattchitto.net/chattchittorg/movies/brrip/2011/illusionist/3.png&quot; rel=&quot;nofollow&quot; target=&quot;_NEW&quot;&gt;\nhttp://chattchitto.net/chattchittorg/movies/brrip/2011/illusionist/3.png&lt;/a&gt; &lt;a href=&quot;\nhttp://chattchitto.net/chattchittorg/movies/brrip/2011/illusionist/4.png&quot; rel=&quot;nofollow&quot; target=&quot;_NEW&quot;&gt;\nhttp://chattchitto.net/chattchittorg/movies/brrip/2011/illusionist/4.png&lt;/a&gt; &lt;a href=&quot;\nhttp://chattchitto.net/chattchittorg/movies/brrip/2011/illusionist/5.png&quot; rel=&quot;nofollow&quot; target=&quot;_NEW&quot;&gt;\nhttp://chattchitto.net/chattchittorg/movies/brrip/2011/illusionist/5.png&lt;/a&gt; &lt;a href=&quot;\nhttp://chattchitto.net/chattchittorg/movies/brrip/2011/illusionist/6.png&quot; rel=&quot;nofollow&quot; target=&quot;_NEW&quot;&gt;\nhttp://chattchitto.net/chattchittorg/movies/brrip/2011/illusionist/6.png&lt;/a&gt; &lt;a href=&quot;\nhttp://chattchitto.net/chattchittorg/movies/brrip/2011/illusionist/7.png&quot; rel=&quot;nofollow&quot; target=&quot;_NEW&quot;&gt;\nhttp://chattchitto.net/chattchittorg/movies/brrip/2011/illusionist/7.png&lt;/a&gt;\n\n\n\nScreenShots Comparison:\n=========================  &lt;a href=&quot;\nhttp://screenshotcomparison.com/comparison/30993&quot; rel=&quot;nofollow&quot; target=&quot;_NEW&quot;&gt;\nhttp://screenshotcomparison.com/comparison/30993&lt;/a&gt;\n\n\n\nPlot:\n======\nEisenheim is a stage magician who amazes the audiences of turn-of-the-century Vienna, drawing the attention of Crown Prince Leopold. When the Prince's intended, Sophie von Teschen, assists the magician onstage, Eisenheim and Sophie recognize each other from their childhoods -- and a dormant love affair is rekindled. As the clandestine romance continues, Chief Inspector Uhl is charged by Leopold to expose Eisenheim, and Eisenheim prepares to execute his greatest illusion yet.\n\n\n\nRelease Info:\n==============\noriginal name .... : The Illusionist 2006 720p BRRip H264 [ChattChitto RG]\nripper.............: SiNNERS\nencoder............: Recalled2Life (R2L)\nvideo codec........: H264/.MP4\nvideo bitrate......: 2300 Kbps\naudio codec........: AAC-LC\naspect ratio.......: 1.860\nresolution.........: 1280 x 688\ngenre..............: Drama | Mystery | Romance\nruntime............: 1h 48mn\nlanguage...........: English\nrating.............: PG-13\nsubtitles..........: English | Portuguese | Romanian | Spanish\nsample.............: Yes [14 MB]\n2ch Audio..........: 2ch Audio for XBox Viewers  \nCompatibility .....: XBox | PS3 | WD Live\n\n\n\nSource:\n========\nThe.Illusionist.2006.720p.BluRay.x264-SiNNERS  THANKS!\n\n\n\nNotes:\n=======\nChattChitto RG Encourages Burning this Film with ConvertXtoDVD and Playing with VLC media player.\nXBox 360 | PS3 | WD Live - Compatible \nEnhanced for your viewing pleasure ;)","torrent":{"xt":"urn:btih:2dcb9acc081c55b15898bef14c5d1b060f4d96d3","amp;dn":"The+Illusionist+2006+720p+BRRip+H264+%5BChattChitto+RG%5D","amp;tr":["udp%3A%2F%2Ftracker.openbittorrent.com%3A80","udp%3A%2F%2Fopen.demonii.com%3A1337","udp%3A%2F%2Ftracker.coppersurfer.tk%3A6969","udp%3A%2F%2Fexodus.desync.com%3A6969"],"infoHash":"2dcb9acc081c55b15898bef14c5d1b060f4d96d3","infoHashBuffer":{"type":"Buffer","data":[45,203,154,204,8,28,85,177,88,152,190,241,76,93,27,6,15,77,150,211]},"announce":[],"urlList":[]}}